<mxfile host="app.diagrams.net" modified="2023-02-18T14:37:28.615Z" agent="5.0 (Macintosh; Intel Mac OS X 10_15_7) AppleWebKit/605.1.15 (KHTML, like Gecko) Version/16.3 Safari/605.1.15" etag="ansDKi7f0soOwr30QTIw" version="20.8.20" type="github">
  <diagram name="Page-1" id="1KevMGaUwc12stQSihPz">
    <mxGraphModel dx="1804" dy="599" grid="1" gridSize="10" guides="1" tooltips="1" connect="1" arrows="1" fold="1" page="1" pageScale="1" pageWidth="850" pageHeight="1100" math="0" shadow="0">
      <root>
        <mxCell id="0" />
        <mxCell id="1" parent="0" />
        <mxCell id="AbDWLXvCetcpgCDr8WIA-4" value="" style="rounded=0;whiteSpace=wrap;html=1;fillColor=#dae8fc;strokeColor=#6c8ebf;" parent="1" vertex="1">
          <mxGeometry width="300" height="1600" as="geometry" />
        </mxCell>
        <mxCell id="7jnl_gE7uze0uzX-0y81-2" value="" style="shape=ext;double=1;rounded=0;whiteSpace=wrap;html=1;" parent="1" vertex="1">
          <mxGeometry x="10" y="10" width="280" height="240" as="geometry" />
        </mxCell>
        <mxCell id="7jnl_gE7uze0uzX-0y81-3" value="" style="endArrow=none;html=1;rounded=0;entryX=0.979;entryY=0.008;entryDx=0;entryDy=0;entryPerimeter=0;" parent="1" target="7jnl_gE7uze0uzX-0y81-2" edge="1">
          <mxGeometry width="50" height="50" relative="1" as="geometry">
            <mxPoint x="10" y="250" as="sourcePoint" />
            <mxPoint x="690" y="260" as="targetPoint" />
            <Array as="points">
              <mxPoint x="10" y="250" />
            </Array>
          </mxGeometry>
        </mxCell>
        <mxCell id="7jnl_gE7uze0uzX-0y81-4" value="" style="endArrow=none;html=1;rounded=0;entryX=0;entryY=0;entryDx=0;entryDy=0;exitX=1;exitY=1;exitDx=0;exitDy=0;" parent="1" source="7jnl_gE7uze0uzX-0y81-2" target="7jnl_gE7uze0uzX-0y81-2" edge="1">
          <mxGeometry width="50" height="50" relative="1" as="geometry">
            <mxPoint x="660" y="250" as="sourcePoint" />
            <mxPoint x="710" y="200" as="targetPoint" />
          </mxGeometry>
        </mxCell>
        <mxCell id="7jnl_gE7uze0uzX-0y81-11" value="" style="whiteSpace=wrap;html=1;aspect=fixed;" parent="1" vertex="1">
          <mxGeometry x="10" y="536" width="220" height="220" as="geometry" />
        </mxCell>
        <mxCell id="7jnl_gE7uze0uzX-0y81-5" value="" style="line;strokeWidth=2;html=1;" parent="1" vertex="1">
          <mxGeometry x="20" y="656" width="160" height="10" as="geometry" />
        </mxCell>
        <mxCell id="7jnl_gE7uze0uzX-0y81-6" value="" style="line;strokeWidth=2;html=1;" parent="1" vertex="1">
          <mxGeometry x="60" y="626" width="160" height="10" as="geometry" />
        </mxCell>
        <mxCell id="7jnl_gE7uze0uzX-0y81-8" value="H2 - Compétences pro" style="rounded=0;whiteSpace=wrap;html=1;" parent="1" vertex="1">
          <mxGeometry x="310" y="10" width="530" height="60" as="geometry" />
        </mxCell>
        <mxCell id="7jnl_gE7uze0uzX-0y81-9" value="H1 - Emploi" style="rounded=0;whiteSpace=wrap;html=1;" parent="1" vertex="1">
          <mxGeometry x="10" y="260" width="280" height="60" as="geometry" />
        </mxCell>
        <mxCell id="7jnl_gE7uze0uzX-0y81-10" value="H2 - Nom" style="rounded=0;whiteSpace=wrap;html=1;" parent="1" vertex="1">
          <mxGeometry x="10" y="360" width="280" height="40" as="geometry" />
        </mxCell>
        <mxCell id="7jnl_gE7uze0uzX-0y81-12" value="" style="line;strokeWidth=2;html=1;" parent="1" vertex="1">
          <mxGeometry x="60" y="560" width="160" height="10" as="geometry" />
        </mxCell>
        <mxCell id="7jnl_gE7uze0uzX-0y81-13" value="" style="line;strokeWidth=2;html=1;" parent="1" vertex="1">
          <mxGeometry x="60" y="590" width="160" height="10" as="geometry" />
        </mxCell>
        <mxCell id="7jnl_gE7uze0uzX-0y81-14" value="H2 - Expériences professionnelles" style="rounded=0;whiteSpace=wrap;html=1;" parent="1" vertex="1">
          <mxGeometry x="310" y="732" width="530" height="60" as="geometry" />
        </mxCell>
        <mxCell id="7jnl_gE7uze0uzX-0y81-15" value="H2 - Formations" style="rounded=0;whiteSpace=wrap;html=1;" parent="1" vertex="1">
          <mxGeometry x="310" y="1122" width="530" height="60" as="geometry" />
        </mxCell>
        <mxCell id="7jnl_gE7uze0uzX-0y81-18" value="" style="line;strokeWidth=2;html=1;" parent="1" vertex="1">
          <mxGeometry x="20" y="686" width="160" height="10" as="geometry" />
        </mxCell>
        <mxCell id="7jnl_gE7uze0uzX-0y81-20" value="" style="line;strokeWidth=2;html=1;" parent="1" vertex="1">
          <mxGeometry x="20" y="716" width="160" height="10" as="geometry" />
        </mxCell>
        <mxCell id="7jnl_gE7uze0uzX-0y81-21" style="edgeStyle=orthogonalEdgeStyle;rounded=0;orthogonalLoop=1;jettySize=auto;html=1;exitX=0.5;exitY=1;exitDx=0;exitDy=0;" parent="1" source="7jnl_gE7uze0uzX-0y81-11" target="7jnl_gE7uze0uzX-0y81-11" edge="1">
          <mxGeometry relative="1" as="geometry" />
        </mxCell>
        <mxCell id="7jnl_gE7uze0uzX-0y81-22" value="H2 - Profil" style="rounded=0;whiteSpace=wrap;html=1;" parent="1" vertex="1">
          <mxGeometry x="10" y="816" width="280" height="40" as="geometry" />
        </mxCell>
        <mxCell id="7jnl_gE7uze0uzX-0y81-23" value="" style="whiteSpace=wrap;html=1;aspect=fixed;" parent="1" vertex="1">
          <mxGeometry x="10" y="876" width="220" height="220" as="geometry" />
        </mxCell>
        <mxCell id="7jnl_gE7uze0uzX-0y81-24" value="" style="line;strokeWidth=2;html=1;" parent="1" vertex="1">
          <mxGeometry x="20" y="906" width="160" height="10" as="geometry" />
        </mxCell>
        <mxCell id="7jnl_gE7uze0uzX-0y81-25" value="" style="line;strokeWidth=2;html=1;" parent="1" vertex="1">
          <mxGeometry x="20" y="936" width="160" height="10" as="geometry" />
        </mxCell>
        <mxCell id="7jnl_gE7uze0uzX-0y81-26" value="" style="line;strokeWidth=2;html=1;" parent="1" vertex="1">
          <mxGeometry x="20" y="966" width="160" height="10" as="geometry" />
        </mxCell>
        <mxCell id="7jnl_gE7uze0uzX-0y81-27" value="" style="line;strokeWidth=2;html=1;" parent="1" vertex="1">
          <mxGeometry x="20" y="996" width="160" height="10" as="geometry" />
        </mxCell>
        <mxCell id="7jnl_gE7uze0uzX-0y81-28" value="" style="line;strokeWidth=2;html=1;" parent="1" vertex="1">
          <mxGeometry x="20" y="1026" width="160" height="10" as="geometry" />
        </mxCell>
        <mxCell id="7jnl_gE7uze0uzX-0y81-29" value="" style="line;strokeWidth=2;html=1;" parent="1" vertex="1">
          <mxGeometry x="20" y="1056" width="160" height="10" as="geometry" />
        </mxCell>
        <mxCell id="7jnl_gE7uze0uzX-0y81-30" value="H2 - Langues" style="rounded=0;whiteSpace=wrap;html=1;" parent="1" vertex="1">
          <mxGeometry x="10" y="1166" width="280" height="40" as="geometry" />
        </mxCell>
        <mxCell id="7jnl_gE7uze0uzX-0y81-31" value="" style="rounded=0;whiteSpace=wrap;html=1;" parent="1" vertex="1">
          <mxGeometry x="10" y="1226" width="230" height="130" as="geometry" />
        </mxCell>
        <mxCell id="7jnl_gE7uze0uzX-0y81-32" value="" style="line;strokeWidth=2;html=1;" parent="1" vertex="1">
          <mxGeometry x="20" y="1256" width="160" height="10" as="geometry" />
        </mxCell>
        <mxCell id="7jnl_gE7uze0uzX-0y81-33" value="" style="line;strokeWidth=2;html=1;" parent="1" vertex="1">
          <mxGeometry x="20" y="1286" width="160" height="10" as="geometry" />
        </mxCell>
        <mxCell id="7jnl_gE7uze0uzX-0y81-34" value="" style="line;strokeWidth=2;html=1;" parent="1" vertex="1">
          <mxGeometry x="20" y="1316" width="160" height="10" as="geometry" />
        </mxCell>
        <mxCell id="7jnl_gE7uze0uzX-0y81-35" value="H2 - Loisirs" style="rounded=0;whiteSpace=wrap;html=1;" parent="1" vertex="1">
          <mxGeometry x="10" y="1416" width="280" height="40" as="geometry" />
        </mxCell>
        <mxCell id="7jnl_gE7uze0uzX-0y81-36" value="" style="rounded=0;whiteSpace=wrap;html=1;" parent="1" vertex="1">
          <mxGeometry x="10" y="1476" width="230" height="110" as="geometry" />
        </mxCell>
        <mxCell id="7jnl_gE7uze0uzX-0y81-37" value="" style="line;strokeWidth=2;html=1;" parent="1" vertex="1">
          <mxGeometry x="20" y="1506" width="160" height="10" as="geometry" />
        </mxCell>
        <mxCell id="7jnl_gE7uze0uzX-0y81-38" value="" style="line;strokeWidth=2;html=1;" parent="1" vertex="1">
          <mxGeometry x="20" y="1536" width="160" height="10" as="geometry" />
        </mxCell>
        <mxCell id="7jnl_gE7uze0uzX-0y81-39" value="Photo de profil" style="shape=callout;whiteSpace=wrap;html=1;perimeter=calloutPerimeter;position2=1;" parent="1" vertex="1">
          <mxGeometry x="-140" y="50" width="120" height="80" as="geometry" />
        </mxCell>
        <mxCell id="7jnl_gE7uze0uzX-0y81-40" value="Informations de contact (adresse, e-mail, téléphone, permis de travail, date de naissance" style="shape=callout;whiteSpace=wrap;html=1;perimeter=calloutPerimeter;position2=1;" parent="1" vertex="1">
          <mxGeometry x="-140" y="536" width="120" height="150" as="geometry" />
        </mxCell>
        <mxCell id="7jnl_gE7uze0uzX-0y81-41" value="Soft skills" style="shape=callout;whiteSpace=wrap;html=1;perimeter=calloutPerimeter;position2=1;" parent="1" vertex="1">
          <mxGeometry x="-160" y="906" width="120" height="90" as="geometry" />
        </mxCell>
        <mxCell id="7jnl_gE7uze0uzX-0y81-43" value="H3" style="rounded=0;whiteSpace=wrap;html=1;" parent="1" vertex="1">
          <mxGeometry x="310" y="90" width="280" height="30" as="geometry" />
        </mxCell>
        <mxCell id="7jnl_gE7uze0uzX-0y81-44" value="H3" style="rounded=0;whiteSpace=wrap;html=1;" parent="1" vertex="1">
          <mxGeometry x="310" y="434" width="280" height="30" as="geometry" />
        </mxCell>
        <mxCell id="7jnl_gE7uze0uzX-0y81-48" value="" style="line;strokeWidth=2;html=1;" parent="1" vertex="1">
          <mxGeometry x="310" y="170" width="350" height="10" as="geometry" />
        </mxCell>
        <mxCell id="7jnl_gE7uze0uzX-0y81-49" value="" style="line;strokeWidth=2;html=1;" parent="1" vertex="1">
          <mxGeometry x="310" y="140" width="350" height="10" as="geometry" />
        </mxCell>
        <mxCell id="7jnl_gE7uze0uzX-0y81-50" value="" style="line;strokeWidth=2;html=1;" parent="1" vertex="1">
          <mxGeometry x="310" y="200" width="350" height="10" as="geometry" />
        </mxCell>
        <mxCell id="7jnl_gE7uze0uzX-0y81-51" value="" style="line;strokeWidth=2;html=1;" parent="1" vertex="1">
          <mxGeometry x="310" y="230" width="350" height="10" as="geometry" />
        </mxCell>
        <mxCell id="7jnl_gE7uze0uzX-0y81-52" value="" style="line;strokeWidth=2;html=1;" parent="1" vertex="1">
          <mxGeometry x="310" y="260" width="350" height="10" as="geometry" />
        </mxCell>
        <mxCell id="7jnl_gE7uze0uzX-0y81-53" value="Compétences en lnformatique" style="shape=callout;whiteSpace=wrap;html=1;perimeter=calloutPerimeter;position2=0;" parent="1" vertex="1">
          <mxGeometry x="860" y="130" width="120" height="120" as="geometry" />
        </mxCell>
        <mxCell id="7jnl_gE7uze0uzX-0y81-54" value="Compétences en vente" style="shape=callout;whiteSpace=wrap;html=1;perimeter=calloutPerimeter;position2=0;" parent="1" vertex="1">
          <mxGeometry x="860" y="519" width="100" height="110" as="geometry" />
        </mxCell>
        <mxCell id="7jnl_gE7uze0uzX-0y81-55" value="" style="line;strokeWidth=2;html=1;" parent="1" vertex="1">
          <mxGeometry x="310" y="484" width="350" height="10" as="geometry" />
        </mxCell>
        <mxCell id="7jnl_gE7uze0uzX-0y81-56" value="" style="line;strokeWidth=2;html=1;" parent="1" vertex="1">
          <mxGeometry x="310" y="509" width="350" height="10" as="geometry" />
        </mxCell>
        <mxCell id="7jnl_gE7uze0uzX-0y81-57" value="" style="line;strokeWidth=2;html=1;" parent="1" vertex="1">
          <mxGeometry x="310" y="822" width="350" height="10" as="geometry" />
        </mxCell>
        <mxCell id="7jnl_gE7uze0uzX-0y81-58" value="" style="line;strokeWidth=2;html=1;" parent="1" vertex="1">
          <mxGeometry x="310" y="852" width="350" height="10" as="geometry" />
        </mxCell>
        <mxCell id="7jnl_gE7uze0uzX-0y81-59" value="" style="line;strokeWidth=2;html=1;" parent="1" vertex="1">
          <mxGeometry x="310" y="882" width="350" height="10" as="geometry" />
        </mxCell>
        <mxCell id="7jnl_gE7uze0uzX-0y81-60" value="" style="line;strokeWidth=2;html=1;" parent="1" vertex="1">
          <mxGeometry x="310" y="912" width="350" height="10" as="geometry" />
        </mxCell>
        <mxCell id="7jnl_gE7uze0uzX-0y81-61" value="" style="line;strokeWidth=2;html=1;" parent="1" vertex="1">
          <mxGeometry x="310" y="942" width="350" height="10" as="geometry" />
        </mxCell>
        <mxCell id="7jnl_gE7uze0uzX-0y81-62" value="" style="line;strokeWidth=2;html=1;" parent="1" vertex="1">
          <mxGeometry x="310" y="972" width="350" height="10" as="geometry" />
        </mxCell>
        <mxCell id="7jnl_gE7uze0uzX-0y81-63" value="" style="line;strokeWidth=2;html=1;" parent="1" vertex="1">
          <mxGeometry x="310" y="1002" width="350" height="10" as="geometry" />
        </mxCell>
        <mxCell id="7jnl_gE7uze0uzX-0y81-64" value="" style="line;strokeWidth=2;html=1;" parent="1" vertex="1">
          <mxGeometry x="310" y="1032" width="350" height="10" as="geometry" />
        </mxCell>
        <mxCell id="7jnl_gE7uze0uzX-0y81-65" value="" style="line;strokeWidth=2;html=1;" parent="1" vertex="1">
          <mxGeometry x="310" y="1062" width="350" height="10" as="geometry" />
        </mxCell>
        <mxCell id="7jnl_gE7uze0uzX-0y81-66" value="" style="line;strokeWidth=2;html=1;" parent="1" vertex="1">
          <mxGeometry x="310" y="534" width="350" height="10" as="geometry" />
        </mxCell>
        <mxCell id="7jnl_gE7uze0uzX-0y81-67" value="" style="line;strokeWidth=2;html=1;" parent="1" vertex="1">
          <mxGeometry x="310" y="564" width="350" height="10" as="geometry" />
        </mxCell>
        <mxCell id="7jnl_gE7uze0uzX-0y81-68" value="" style="line;strokeWidth=2;html=1;" parent="1" vertex="1">
          <mxGeometry x="310" y="1207" width="350" height="10" as="geometry" />
        </mxCell>
        <mxCell id="7jnl_gE7uze0uzX-0y81-69" value="" style="line;strokeWidth=2;html=1;" parent="1" vertex="1">
          <mxGeometry x="310" y="1237" width="350" height="10" as="geometry" />
        </mxCell>
        <mxCell id="7jnl_gE7uze0uzX-0y81-70" value="" style="line;strokeWidth=2;html=1;" parent="1" vertex="1">
          <mxGeometry x="310" y="1267" width="350" height="10" as="geometry" />
        </mxCell>
        <mxCell id="7jnl_gE7uze0uzX-0y81-71" value="" style="line;strokeWidth=2;html=1;" parent="1" vertex="1">
          <mxGeometry x="310" y="1297" width="350" height="10" as="geometry" />
        </mxCell>
        <mxCell id="7jnl_gE7uze0uzX-0y81-72" value="" style="line;strokeWidth=2;html=1;" parent="1" vertex="1">
          <mxGeometry x="310" y="1327" width="350" height="10" as="geometry" />
        </mxCell>
        <mxCell id="7jnl_gE7uze0uzX-0y81-73" value="" style="line;strokeWidth=2;html=1;" parent="1" vertex="1">
          <mxGeometry x="310" y="600" width="350" height="10" as="geometry" />
        </mxCell>
        <mxCell id="7jnl_gE7uze0uzX-0y81-74" value="" style="line;strokeWidth=2;html=1;" parent="1" vertex="1">
          <mxGeometry x="310" y="630" width="350" height="10" as="geometry" />
        </mxCell>
        <mxCell id="7jnl_gE7uze0uzX-0y81-75" value="" style="line;strokeWidth=2;html=1;" parent="1" vertex="1">
          <mxGeometry x="310" y="660" width="350" height="10" as="geometry" />
        </mxCell>
        <mxCell id="7jnl_gE7uze0uzX-0y81-76" value="" style="line;strokeWidth=2;html=1;" parent="1" vertex="1">
          <mxGeometry x="310" y="290" width="350" height="10" as="geometry" />
        </mxCell>
        <mxCell id="7jnl_gE7uze0uzX-0y81-77" value="" style="line;strokeWidth=2;html=1;" parent="1" vertex="1">
          <mxGeometry x="310" y="320" width="350" height="10" as="geometry" />
        </mxCell>
        <mxCell id="7jnl_gE7uze0uzX-0y81-78" value="" style="line;strokeWidth=2;html=1;" parent="1" vertex="1">
          <mxGeometry x="310" y="350" width="350" height="10" as="geometry" />
        </mxCell>
        <mxCell id="7jnl_gE7uze0uzX-0y81-79" value="B" style="rounded=0;whiteSpace=wrap;html=1;" parent="1" vertex="1">
          <mxGeometry x="10" y="434" width="280" height="60" as="geometry" />
        </mxCell>
        <mxCell id="7jnl_gE7uze0uzX-0y81-81" value="Bouton de téléchargement du CV en PDF" style="shape=callout;whiteSpace=wrap;html=1;perimeter=calloutPerimeter;position2=1;" parent="1" vertex="1">
          <mxGeometry x="-130" y="360" width="100" height="110" as="geometry" />
        </mxCell>
        <mxCell id="Cvl7oAadZl_0p-2KAOBI-1" value="" style="shape=sumEllipse;perimeter=ellipsePerimeter;whiteSpace=wrap;html=1;backgroundOutline=1;" parent="1" vertex="1">
          <mxGeometry x="20" y="550" width="26" height="26" as="geometry" />
        </mxCell>
        <mxCell id="Cvl7oAadZl_0p-2KAOBI-2" value="" style="shape=sumEllipse;perimeter=ellipsePerimeter;whiteSpace=wrap;html=1;backgroundOutline=1;" parent="1" vertex="1">
          <mxGeometry x="20" y="582" width="26" height="26" as="geometry" />
        </mxCell>
        <mxCell id="Cvl7oAadZl_0p-2KAOBI-3" value="" style="shape=sumEllipse;perimeter=ellipsePerimeter;whiteSpace=wrap;html=1;backgroundOutline=1;" parent="1" vertex="1">
          <mxGeometry x="20" y="615" width="26" height="26" as="geometry" />
        </mxCell>
      </root>
    </mxGraphModel>
  </diagram>
</mxfile>
